<?xml version="1.0" encoding="UTF-8" standalone="no"?>
<!-- Created with Inkscape (http://www.inkscape.org/) -->

<svg
   width="210mm"
   height="297mm"
   viewBox="0 0 210 297"
   version="1.1"
   id="svg1"
   sodipodi:docname="рисунок.svg">
  <sodipodi:namedview
     id="namedview1"
     pagecolor="#ffffff"
     bordercolor="#000000"
     borderopacity="0.25"
     inkscape:showpageshadow="2"
     inkscape:pageopacity="0.0"
     inkscape:pagecheckerboard="0"
     inkscape:deskcolor="#d1d1d1"
     inkscape:document-units="mm"
     inkscape:zoom="0.76702441"
     inkscape:cx="396.98867"
     inkscape:cy="561.25984"
     inkscape:window-width="1920"
     inkscape:window-height="1057"
     inkscape:window-x="-8"
     inkscape:window-y="-8"
     inkscape:window-maximized="1"
     inkscape:current-layer="layer1" />
  <defs
     id="defs1" />
  <g
     inkscape:label="Слой 1"
     inkscape:groupmode="layer"
     id="layer1">
    <path
       style="fill:#000000;stroke-width:0.264583"
       id="path1"
       d="m 13.085966,58.977447 c 4.85059,1.43559 9.520014,3.540191 13.934863,6.000314 0.6447,0.359251 1.235149,0.808206 1.852721,1.212307 1.61525,1.140976 3.272745,2.224381 4.845749,3.422928 3.478892,2.650728 7.025798,5.807583 10.205643,8.786378 3.278687,3.071387 6.506347,6.323129 9.568497,9.612572 1.349997,1.450202 2.648498,2.947503 3.972748,4.421256 1.108945,1.326727 2.232792,2.64114 3.326834,3.98018 2.094743,2.563845 3.59501,4.488148 5.517663,7.149578 2.288291,3.16755 4.418269,6.44922 6.605106,9.68667 5.253535,7.82645 11.040673,15.27083 16.843763,22.69203 3.993301,4.98582 8.222872,9.77556 12.189757,14.78291 2.55883,3.22999 2.65304,3.41786 5.06238,6.69189 3.51009,4.63427 6.72055,9.50077 10.45071,13.9654 2.15836,2.5359 4.35202,3.92068 7.46793,5.46389 0.92022,0.45574 3.55963,0.8794 4.40759,1.04223 3.65291,0.64633 7.36171,0.7791 11.05118,1.06566 0.87435,0.0679 4.08256,0.38242 5.01403,0.47259 1.87069,0.1941 3.71364,0.5689 5.55643,0.9319 0,0 -3.02764,-2.28756 -3.02764,-2.28756 v 0 c -1.82157,-0.33146 -3.64435,-0.66705 -5.49007,-0.83841 -1.37522,-0.12457 -3.62743,-0.33344 -4.98104,-0.4355 -3.6899,-0.27821 -7.39861,-0.43468 -11.0442,-1.12309 -0.84224,-0.18477 -1.69554,-0.32482 -2.5267,-0.55429 -0.65736,-0.18149 -2.09859,-1.33737 -1.93081,-0.67638 0.1979,0.77967 1.33428,0.9169 2.07279,1.23574 0.39459,0.17035 -0.69454,-0.5075 -1.02434,-0.7831 -0.94328,-0.78825 -1.20865,-1.12719 -2.07421,-2.04394 -3.88164,-4.44756 -7.1941,-9.35302 -10.74262,-14.06193 -2.55815,-3.46931 -5.17033,-6.87815 -7.91402,-10.20419 -2.597947,-3.14937 -3.52483,-4.14166 -6.173092,-7.31994 -1.10985,-1.33197 -2.200487,-2.67983 -3.300727,-4.01975 -5.770721,-7.37242 -11.468293,-14.80521 -16.673957,-22.59309 -2.207186,-3.2506 -4.350922,-6.55142 -6.662761,-9.72951 -1.893282,-2.60271 -3.557947,-4.72006 -5.619075,-7.213937 -1.121127,-1.356511 -2.274904,-2.6857 -3.412353,-4.028551 -1.347351,-1.487143 -2.67049,-2.996583 -4.042047,-4.461428 -3.116559,-3.32854 -6.298142,-6.523048 -9.614599,-9.654021 C 43.555335,76.52274 40.236497,73.509874 36.723248,70.798766 35.170033,69.600177 33.532156,68.515502 31.93661,67.37387 29.425603,65.8755 26.94745,64.320647 24.403591,62.878758 19.837029,60.290373 14.965821,58.196334 9.9809693,56.565188 Z" />
  </g>
</svg>
